solid clawShape2
 facet normal -1.0000000E+00 0.0000000E+00 0.0000000E+00
  outer loop
   vertex -3.0000000E-02 -3.7500000E-02 0.0000000E+00
   vertex -3.0000000E-02 -3.7500000E-02 2.5000000E-01
   vertex -3.0000000E-02 3.7500000E-02 1.3000000E-01
  endloop
 endfacet
 facet normal -1.0000000E+00 0.0000000E+00 0.0000000E+00
  outer loop
   vertex -3.0000000E-02 3.7500000E-02 1.3000000E-01
   vertex -3.0000000E-02 3.7500000E-02 0.0000000E+00
   vertex -3.0000000E-02 -3.7500000E-02 0.0000000E+00
  endloop
 endfacet
 facet normal 1.0000000E+00 -0.0000000E+00 0.0000000E+00
  outer loop
   vertex -3.0000000E-02 -3.7500000E-02 2.5000000E-01
   vertex -3.0000000E-02 3.7500000E-02 1.3000000E-01
   vertex -3.0000000E-02 9.0000000E-02 2.5000000E-01
  endloop
 endfacet
 facet normal -1.0000000E+00 0.0000000E+00 0.0000000E+00
  outer loop
   vertex -3.0000000E-02 9.0000000E-02 2.5000000E-01
   vertex -3.0000000E-02 3.7500000E-02 1.3000000E-01
   vertex -3.0000000E-02 -3.7500000E-02 2.5000000E-01
  endloop
 endfacet
 facet normal -1.0000000E+00 0.0000000E+00 0.0000000E+00
  outer loop
   vertex -3.0000000E-02 3.7500000E-02 1.3000000E-01
   vertex -3.0000000E-02 3.7500000E-02 2.5000000E-01
   vertex -3.0000000E-02 9.2500000E-02 3.0000000E-01
  endloop
 endfacet
 facet normal -1.0000000E+00 0.0000000E+00 0.0000000E+00
  outer loop
   vertex -3.0000000E-02 9.2500000E-02 3.0000000E-01
   vertex -3.0000000E-02 9.0000000E-02 2.5000000E-01
   vertex -3.0000000E-02 3.7500000E-02 1.3000000E-01
  endloop
 endfacet
 facet normal 1.0000000E+00 0.0000000E+00 -0.0000000E+00
  outer loop
   vertex -3.0000000E-02 3.7500000E-02 2.5000000E-01
   vertex -3.0000000E-02 9.2500000E-02 3.0000000E-01
   vertex -3.0000000E-02 3.7500000E-02 3.8000000E-01
  endloop
 endfacet
 facet normal -1.0000000E+00 0.0000000E+00 0.0000000E+00
  outer loop
   vertex -3.0000000E-02 3.7500000E-02 3.8000000E-01
   vertex -3.0000000E-02 9.2500000E-02 3.0000000E-01
   vertex -3.0000000E-02 3.7500000E-02 2.5000000E-01
  endloop
 endfacet
 facet normal -1.0000000E+00 -0.0000000E+00 0.0000000E+00
  outer loop
   vertex -3.0000000E-02 9.2500000E-02 3.0000000E-01
   vertex -3.0000000E-02 9.0000000E-02 2.5000000E-01
   vertex -3.0000000E-02 3.7500000E-02 3.0000000E-01
  endloop
 endfacet
 facet normal -1.0000000E+00 -0.0000000E+00 -0.0000000E+00
  outer loop
   vertex -3.0000000E-02 3.7500000E-02 3.0000000E-01
   vertex -3.0000000E-02 3.7500000E-02 3.8000000E-01
   vertex -3.0000000E-02 9.2500000E-02 3.0000000E-01
  endloop
 endfacet
 facet normal -1.0000000E+00 -0.0000000E+00 0.0000000E+00
  outer loop
   vertex -3.0000000E-02 9.0000000E-02 2.5000000E-01
   vertex -3.0000000E-02 3.7500000E-02 1.3000000E-01
   vertex -3.0000000E-02 3.7500000E-02 2.5000000E-01
  endloop
 endfacet
 facet normal -1.0000000E+00 -0.0000000E+00 -0.0000000E+00
  outer loop
   vertex -3.0000000E-02 3.7500000E-02 2.5000000E-01
   vertex -3.0000000E-02 3.7500000E-02 3.0000000E-01
   vertex -3.0000000E-02 9.0000000E-02 2.5000000E-01
  endloop
 endfacet
 facet normal -1.0000000E+00 -0.0000000E+00 -0.0000000E+00
  outer loop
   vertex -3.0000000E-02 3.7500000E-02 1.3000000E-01
   vertex -3.0000000E-02 3.7500000E-02 0.0000000E+00
   vertex -3.0000000E-02 0.0000000E+00 2.5000000E-01
  endloop
 endfacet
 facet normal -1.0000000E+00 0.0000000E+00 0.0000000E+00
  outer loop
   vertex -3.0000000E-02 0.0000000E+00 2.5000000E-01
   vertex -3.0000000E-02 3.7500000E-02 2.5000000E-01
   vertex -3.0000000E-02 3.7500000E-02 1.3000000E-01
  endloop
 endfacet
 facet normal -1.0000000E+00 0.0000000E+00 0.0000000E+00
  outer loop
   vertex -3.0000000E-02 3.7500000E-02 0.0000000E+00
   vertex -3.0000000E-02 -3.7500000E-02 1.3000000E-01
   vertex -3.0000000E-02 -3.7500000E-02 2.5000000E-01
  endloop
 endfacet
 facet normal -1.0000000E+00 0.0000000E+00 0.0000000E+00
  outer loop
   vertex -3.0000000E-02 -3.7500000E-02 2.5000000E-01
   vertex -3.0000000E-02 0.0000000E+00 2.5000000E-01
   vertex -3.0000000E-02 3.7500000E-02 0.0000000E+00
  endloop
 endfacet
 facet normal -1.0000000E+00 0.0000000E+00 0.0000000E+00
  outer loop
   vertex -3.0000000E-02 -3.7500000E-02 1.3000000E-01
   vertex -3.0000000E-02 -9.0000000E-02 2.5000000E-01
   vertex -3.0000000E-02 -3.7500000E-02 3.0000000E-01
  endloop
 endfacet
 facet normal -1.0000000E+00 0.0000000E+00 0.0000000E+00
  outer loop
   vertex -3.0000000E-02 -9.0000000E-02 2.5000000E-01
   vertex -3.0000000E-02 -9.2500000E-02 3.0000000E-01
   vertex -3.0000000E-02 -3.7500000E-02 3.8000000E-01
  endloop
 endfacet
 facet normal -1.0000000E+00 0.0000000E+00 0.0000000E+00
  outer loop
   vertex -3.0000000E-02 -3.7500000E-02 3.8000000E-01
   vertex -3.0000000E-02 -3.7500000E-02 3.0000000E-01
   vertex -3.0000000E-02 -9.0000000E-02 2.5000000E-01
  endloop
 endfacet
 facet normal -1.0000000E+00 -0.0000000E+00 -0.0000000E+00
  outer loop
   vertex -3.0000000E-02 -3.7500000E-02 2.5000000E-01
   vertex -3.0000000E-02 -3.7500000E-02 1.3000000E-01
   vertex -3.0000000E-02 -9.0000000E-02 2.5000000E-01
  endloop
 endfacet
 facet normal -1.0000000E+00 -0.0000000E+00 -0.0000000E+00
  outer loop
   vertex -3.0000000E-02 -9.0000000E-02 2.5000000E-01
   vertex -3.0000000E-02 -9.2500000E-02 3.0000000E-01
   vertex -3.0000000E-02 -3.7500000E-02 2.5000000E-01
  endloop
 endfacet
 facet normal -1.0000000E+00 -0.0000000E+00 -0.0000000E+00
  outer loop
   vertex -3.0000000E-02 3.7500000E-02 2.5000000E-01
   vertex -3.0000000E-02 3.7500000E-02 0.0000000E+00
   vertex -3.0000000E-02 -3.7500000E-02 0.0000000E+00
  endloop
 endfacet
 facet normal -1.0000000E+00 0.0000000E+00 -0.0000000E+00
  outer loop
   vertex -3.0000000E-02 -3.7500000E-02 0.0000000E+00
   vertex -3.0000000E-02 -3.7500000E-02 1.3000000E-01
   vertex -3.0000000E-02 3.7500000E-02 2.5000000E-01
  endloop
 endfacet
 facet normal 0.0000000E+00 1.0000000E+00 0.0000000E+00
  outer loop
   vertex -3.0000000E-02 3.7500000E-02 0.0000000E+00
   vertex -3.0000000E-02 3.7500000E-02 1.3000000E-01
   vertex 3.0000000E-02 3.7500000E-02 1.3000000E-01
  endloop
 endfacet
 facet normal 0.0000000E+00 1.0000000E+00 0.0000000E+00
  outer loop
   vertex 3.0000000E-02 3.7500000E-02 1.3000000E-01
   vertex 3.0000000E-02 3.7500000E-02 0.0000000E+00
   vertex -3.0000000E-02 3.7500000E-02 0.0000000E+00
  endloop
 endfacet
 facet normal 0.0000000E+00 9.1615733E-01 -4.0081883E-01
  outer loop
   vertex -3.0000000E-02 3.7500000E-02 1.3000000E-01
   vertex -3.0000000E-02 9.0000000E-02 2.5000000E-01
   vertex 3.0000000E-02 9.0000000E-02 2.5000000E-01
  endloop
 endfacet
 facet normal 0.0000000E+00 9.1615733E-01 -4.0081883E-01
  outer loop
   vertex 3.0000000E-02 9.0000000E-02 2.5000000E-01
   vertex 3.0000000E-02 3.7500000E-02 1.3000000E-01
   vertex -3.0000000E-02 3.7500000E-02 1.3000000E-01
  endloop
 endfacet
 facet normal 0.0000000E+00 9.9875234E-01 -4.9937617E-02
  outer loop
   vertex -3.0000000E-02 9.0000000E-02 2.5000000E-01
   vertex -3.0000000E-02 9.2500000E-02 3.0000000E-01
   vertex 3.0000000E-02 9.2500000E-02 3.0000000E-01
  endloop
 endfacet
 facet normal 0.0000000E+00 9.9875234E-01 -4.9937617E-02
  outer loop
   vertex 3.0000000E-02 9.2500000E-02 3.0000000E-01
   vertex 3.0000000E-02 9.0000000E-02 2.5000000E-01
   vertex -3.0000000E-02 9.0000000E-02 2.5000000E-01
  endloop
 endfacet
 facet normal -0.0000000E+00 8.2404192E-01 5.6652882E-01
  outer loop
   vertex -3.0000000E-02 9.2500000E-02 3.0000000E-01
   vertex -3.0000000E-02 3.7500000E-02 3.8000000E-01
   vertex 3.0000000E-02 3.7500000E-02 3.8000000E-01
  endloop
 endfacet
 facet normal 0.0000000E+00 8.2404192E-01 5.6652882E-01
  outer loop
   vertex 3.0000000E-02 3.7500000E-02 3.8000000E-01
   vertex 3.0000000E-02 9.2500000E-02 3.0000000E-01
   vertex -3.0000000E-02 9.2500000E-02 3.0000000E-01
  endloop
 endfacet
 facet normal 0.0000000E+00 -1.0000000E+00 0.0000000E+00
  outer loop
   vertex -3.0000000E-02 3.7500000E-02 3.8000000E-01
   vertex -3.0000000E-02 3.7500000E-02 3.0000000E-01
   vertex 3.0000000E-02 3.7500000E-02 3.0000000E-01
  endloop
 endfacet
 facet normal 0.0000000E+00 -1.0000000E+00 0.0000000E+00
  outer loop
   vertex 3.0000000E-02 3.7500000E-02 3.0000000E-01
   vertex 3.0000000E-02 3.7500000E-02 3.8000000E-01
   vertex -3.0000000E-02 3.7500000E-02 3.8000000E-01
  endloop
 endfacet
 facet normal 0.0000000E+00 -1.0000000E+00 0.0000000E+00
  outer loop
   vertex -3.0000000E-02 3.7500000E-02 3.0000000E-01
   vertex -3.0000000E-02 3.7500000E-02 2.5000000E-01
   vertex 3.0000000E-02 3.7500000E-02 2.5000000E-01
  endloop
 endfacet
 facet normal 0.0000000E+00 -1.0000000E+00 0.0000000E+00
  outer loop
   vertex 3.0000000E-02 3.7500000E-02 2.5000000E-01
   vertex 3.0000000E-02 3.7500000E-02 3.0000000E-01
   vertex -3.0000000E-02 3.7500000E-02 3.0000000E-01
  endloop
 endfacet
 facet normal -0.0000000E+00 0.0000000E+00 1.0000000E+00
  outer loop
   vertex -3.0000000E-02 3.7500000E-02 2.5000000E-01
   vertex -3.0000000E-02 0.0000000E+00 2.5000000E-01
   vertex 3.0000000E-02 0.0000000E+00 2.5000000E-01
  endloop
 endfacet
 facet normal 0.0000000E+00 0.0000000E+00 1.0000000E+00
  outer loop
   vertex 3.0000000E-02 0.0000000E+00 2.5000000E-01
   vertex 3.0000000E-02 3.7500000E-02 2.5000000E-01
   vertex -3.0000000E-02 3.7500000E-02 2.5000000E-01
  endloop
 endfacet
 facet normal -0.0000000E+00 0.0000000E+00 1.0000000E+00
  outer loop
   vertex -3.0000000E-02 0.0000000E+00 2.5000000E-01
   vertex -3.0000000E-02 -3.7500000E-02 2.5000000E-01
   vertex 3.0000000E-02 -3.7500000E-02 2.5000000E-01
  endloop
 endfacet
 facet normal 0.0000000E+00 0.0000000E+00 1.0000000E+00
  outer loop
   vertex 3.0000000E-02 -3.7500000E-02 2.5000000E-01
   vertex 3.0000000E-02 0.0000000E+00 2.5000000E-01
   vertex -3.0000000E-02 0.0000000E+00 2.5000000E-01
  endloop
 endfacet
 facet normal 0.0000000E+00 1.0000000E+00 0.0000000E+00
  outer loop
   vertex -3.0000000E-02 -3.7500000E-02 2.5000000E-01
   vertex -3.0000000E-02 -3.7500000E-02 3.0000000E-01
   vertex 3.0000000E-02 -3.7500000E-02 3.0000000E-01
  endloop
 endfacet
 facet normal 0.0000000E+00 1.0000000E+00 0.0000000E+00
  outer loop
   vertex 3.0000000E-02 -3.7500000E-02 3.0000000E-01
   vertex 3.0000000E-02 -3.7500000E-02 2.5000000E-01
   vertex -3.0000000E-02 -3.7500000E-02 2.5000000E-01
  endloop
 endfacet
 facet normal 0.0000000E+00 1.0000000E+00 0.0000000E+00
  outer loop
   vertex -3.0000000E-02 -3.7500000E-02 3.0000000E-01
   vertex -3.0000000E-02 -3.7500000E-02 3.8000000E-01
   vertex 3.0000000E-02 -3.7500000E-02 3.8000000E-01
  endloop
 endfacet
 facet normal 0.0000000E+00 1.0000000E+00 0.0000000E+00
  outer loop
   vertex 3.0000000E-02 -3.7500000E-02 3.8000000E-01
   vertex 3.0000000E-02 -3.7500000E-02 3.0000000E-01
   vertex -3.0000000E-02 -3.7500000E-02 3.0000000E-01
  endloop
 endfacet
 facet normal 0.0000000E+00 -8.2404192E-01 5.6652882E-01
  outer loop
   vertex -3.0000000E-02 -3.7500000E-02 3.8000000E-01
   vertex -3.0000000E-02 -9.2500000E-02 3.0000000E-01
   vertex 3.0000000E-02 -9.2500000E-02 3.0000000E-01
  endloop
 endfacet
 facet normal 0.0000000E+00 -8.2404192E-01 5.6652882E-01
  outer loop
   vertex 3.0000000E-02 -9.2500000E-02 3.0000000E-01
   vertex 3.0000000E-02 -3.7500000E-02 3.8000000E-01
   vertex -3.0000000E-02 -3.7500000E-02 3.8000000E-01
  endloop
 endfacet
 facet normal 0.0000000E+00 -9.9875234E-01 -4.9937617E-02
  outer loop
   vertex -3.0000000E-02 -9.2500000E-02 3.0000000E-01
   vertex -3.0000000E-02 -9.0000000E-02 2.5000000E-01
   vertex 3.0000000E-02 -9.0000000E-02 2.5000000E-01
  endloop
 endfacet
 facet normal 0.0000000E+00 -9.9875234E-01 -4.9937617E-02
  outer loop
   vertex 3.0000000E-02 -9.0000000E-02 2.5000000E-01
   vertex 3.0000000E-02 -9.2500000E-02 3.0000000E-01
   vertex -3.0000000E-02 -9.2500000E-02 3.0000000E-01
  endloop
 endfacet
 facet normal 0.0000000E+00 -9.1615733E-01 -4.0081883E-01
  outer loop
   vertex -3.0000000E-02 -9.0000000E-02 2.5000000E-01
   vertex -3.0000000E-02 -3.7500000E-02 1.3000000E-01
   vertex 3.0000000E-02 -3.7500000E-02 1.3000000E-01
  endloop
 endfacet
 facet normal 0.0000000E+00 -9.1615733E-01 -4.0081883E-01
  outer loop
   vertex 3.0000000E-02 -3.7500000E-02 1.3000000E-01
   vertex 3.0000000E-02 -9.0000000E-02 2.5000000E-01
   vertex -3.0000000E-02 -9.0000000E-02 2.5000000E-01
  endloop
 endfacet
 facet normal 0.0000000E+00 -1.0000000E+00 0.0000000E+00
  outer loop
   vertex -3.0000000E-02 -3.7500000E-02 1.3000000E-01
   vertex -3.0000000E-02 -3.7500000E-02 0.0000000E+00
   vertex 3.0000000E-02 -3.7500000E-02 0.0000000E+00
  endloop
 endfacet
 facet normal 0.0000000E+00 -1.0000000E+00 0.0000000E+00
  outer loop
   vertex 3.0000000E-02 -3.7500000E-02 0.0000000E+00
   vertex 3.0000000E-02 -3.7500000E-02 1.3000000E-01
   vertex -3.0000000E-02 -3.7500000E-02 1.3000000E-01
  endloop
 endfacet
 facet normal 1.0000000E+00 0.0000000E+00 -0.0000000E+00
  outer loop
   vertex 3.0000000E-02 3.7500000E-02 0.0000000E+00
   vertex 3.0000000E-02 3.7500000E-02 1.3000000E-01
   vertex 3.0000000E-02 -3.7500000E-02 2.5000000E-01
  endloop
 endfacet
 facet normal 1.0000000E+00 0.0000000E+00 -0.0000000E+00
  outer loop
   vertex 3.0000000E-02 -3.7500000E-02 2.5000000E-01
   vertex 3.0000000E-02 -3.7500000E-02 0.0000000E+00
   vertex 3.0000000E-02 3.7500000E-02 0.0000000E+00
  endloop
 endfacet
 facet normal 1.0000000E+00 0.0000000E+00 -0.0000000E+00
  outer loop
   vertex 3.0000000E-02 9.0000000E-02 2.5000000E-01
   vertex 3.0000000E-02 9.2500000E-02 3.0000000E-01
   vertex 3.0000000E-02 3.7500000E-02 2.5000000E-01
  endloop
 endfacet
 facet normal 1.0000000E+00 0.0000000E+00 -0.0000000E+00
  outer loop
   vertex 3.0000000E-02 3.7500000E-02 2.5000000E-01
   vertex 3.0000000E-02 3.7500000E-02 1.3000000E-01
   vertex 3.0000000E-02 9.0000000E-02 2.5000000E-01
  endloop
 endfacet
 facet normal 1.0000000E+00 0.0000000E+00 0.0000000E+00
  outer loop
   vertex 3.0000000E-02 3.7500000E-02 3.8000000E-01
   vertex 3.0000000E-02 3.7500000E-02 3.0000000E-01
   vertex 3.0000000E-02 9.0000000E-02 2.5000000E-01
  endloop
 endfacet
 facet normal 1.0000000E+00 0.0000000E+00 0.0000000E+00
  outer loop
   vertex 3.0000000E-02 9.0000000E-02 2.5000000E-01
   vertex 3.0000000E-02 9.2500000E-02 3.0000000E-01
   vertex 3.0000000E-02 3.7500000E-02 3.8000000E-01
  endloop
 endfacet
 facet normal 1.0000000E+00 0.0000000E+00 0.0000000E+00
  outer loop
   vertex 3.0000000E-02 3.7500000E-02 1.3000000E-01
   vertex 3.0000000E-02 9.0000000E-02 2.5000000E-01
   vertex 3.0000000E-02 3.7500000E-02 3.0000000E-01
  endloop
 endfacet
 facet normal 1.0000000E+00 0.0000000E+00 0.0000000E+00
  outer loop
   vertex 3.0000000E-02 3.7500000E-02 2.5000000E-01
   vertex 3.0000000E-02 0.0000000E+00 2.5000000E-01
   vertex 3.0000000E-02 3.7500000E-02 0.0000000E+00
  endloop
 endfacet
 facet normal 1.0000000E+00 0.0000000E+00 0.0000000E+00
  outer loop
   vertex 3.0000000E-02 0.0000000E+00 2.5000000E-01
   vertex 3.0000000E-02 -3.7500000E-02 2.5000000E-01
   vertex 3.0000000E-02 -3.7500000E-02 1.3000000E-01
  endloop
 endfacet
 facet normal 1.0000000E+00 0.0000000E+00 0.0000000E+00
  outer loop
   vertex 3.0000000E-02 -3.7500000E-02 1.3000000E-01
   vertex 3.0000000E-02 3.7500000E-02 0.0000000E+00
   vertex 3.0000000E-02 0.0000000E+00 2.5000000E-01
  endloop
 endfacet
 facet normal 1.0000000E+00 0.0000000E+00 -0.0000000E+00
  outer loop
   vertex 3.0000000E-02 -3.7500000E-02 2.5000000E-01
   vertex 3.0000000E-02 -3.7500000E-02 3.0000000E-01
   vertex 3.0000000E-02 -9.0000000E-02 2.5000000E-01
  endloop
 endfacet
 facet normal 1.0000000E+00 0.0000000E+00 0.0000000E+00
  outer loop
   vertex 3.0000000E-02 -9.0000000E-02 2.5000000E-01
   vertex 3.0000000E-02 -3.7500000E-02 1.3000000E-01
   vertex 3.0000000E-02 -3.7500000E-02 2.5000000E-01
  endloop
 endfacet
 facet normal 1.0000000E+00 0.0000000E+00 -0.0000000E+00
  outer loop
   vertex 3.0000000E-02 -3.7500000E-02 3.0000000E-01
   vertex 3.0000000E-02 -3.7500000E-02 3.8000000E-01
   vertex 3.0000000E-02 -9.2500000E-02 3.0000000E-01
  endloop
 endfacet
 facet normal 1.0000000E+00 0.0000000E+00 0.0000000E+00
  outer loop
   vertex 3.0000000E-02 -9.2500000E-02 3.0000000E-01
   vertex 3.0000000E-02 -9.0000000E-02 2.5000000E-01
   vertex 3.0000000E-02 -3.7500000E-02 3.0000000E-01
  endloop
 endfacet
 facet normal 1.0000000E+00 0.0000000E+00 0.0000000E+00
  outer loop
   vertex 3.0000000E-02 -3.7500000E-02 3.8000000E-01
   vertex 3.0000000E-02 -9.2500000E-02 3.0000000E-01
   vertex 3.0000000E-02 -3.7500000E-02 2.5000000E-01
  endloop
 endfacet
 facet normal -1.0000000E+00 0.0000000E+00 0.0000000E+00
  outer loop
   vertex 3.0000000E-02 -3.7500000E-02 2.5000000E-01
   vertex 3.0000000E-02 -9.2500000E-02 3.0000000E-01
   vertex 3.0000000E-02 -3.7500000E-02 3.8000000E-01
  endloop
 endfacet
 facet normal 1.0000000E+00 0.0000000E+00 0.0000000E+00
  outer loop
   vertex 3.0000000E-02 -9.2500000E-02 3.0000000E-01
   vertex 3.0000000E-02 -9.0000000E-02 2.5000000E-01
   vertex 3.0000000E-02 -3.7500000E-02 1.3000000E-01
  endloop
 endfacet
 facet normal 1.0000000E+00 0.0000000E+00 0.0000000E+00
  outer loop
   vertex 3.0000000E-02 -3.7500000E-02 1.3000000E-01
   vertex 3.0000000E-02 -3.7500000E-02 2.5000000E-01
   vertex 3.0000000E-02 -9.2500000E-02 3.0000000E-01
  endloop
 endfacet
 facet normal 1.0000000E+00 -0.0000000E+00 0.0000000E+00
  outer loop
   vertex 3.0000000E-02 -9.0000000E-02 2.5000000E-01
   vertex 3.0000000E-02 -3.7500000E-02 1.3000000E-01
   vertex 3.0000000E-02 3.7500000E-02 2.5000000E-01
  endloop
 endfacet
 facet normal -1.0000000E+00 0.0000000E+00 0.0000000E+00
  outer loop
   vertex 3.0000000E-02 3.7500000E-02 2.5000000E-01
   vertex 3.0000000E-02 -3.7500000E-02 1.3000000E-01
   vertex 3.0000000E-02 -9.0000000E-02 2.5000000E-01
  endloop
 endfacet
 facet normal 1.0000000E+00 -0.0000000E+00 0.0000000E+00
  outer loop
   vertex 3.0000000E-02 -3.7500000E-02 1.3000000E-01
   vertex 3.0000000E-02 -3.7500000E-02 0.0000000E+00
   vertex 3.0000000E-02 3.7500000E-02 0.0000000E+00
  endloop
 endfacet
 facet normal 1.0000000E+00 0.0000000E+00 0.0000000E+00
  outer loop
   vertex 3.0000000E-02 3.7500000E-02 0.0000000E+00
   vertex 3.0000000E-02 3.7500000E-02 2.5000000E-01
   vertex 3.0000000E-02 -3.7500000E-02 1.3000000E-01
  endloop
 endfacet
endsolid
